<mxfile host="app.diagrams.net" modified="2021-07-02T01:10:32.057Z" agent="5.0 (Windows NT 10.0; Win64; x64) AppleWebKit/537.36 (KHTML, like Gecko) Chrome/91.0.4472.124 Safari/537.36" etag="6gfdsRuSmEkw30avj3xF" version="14.8.3" type="github">
  <diagram id="VhDUNNl_eTV7gkBEtOm5" name="Page-1">
    <mxGraphModel dx="981" dy="548" grid="1" gridSize="10" guides="1" tooltips="1" connect="1" arrows="1" fold="1" page="1" pageScale="1" pageWidth="827" pageHeight="1169" math="0" shadow="0">
      <root>
        <mxCell id="0" />
        <mxCell id="1" parent="0" />
        <mxCell id="_9DPHun8CDZ2yBdKV3rj-3" value="" style="edgeStyle=orthogonalEdgeStyle;rounded=0;orthogonalLoop=1;jettySize=auto;html=1;" edge="1" parent="1" source="_9DPHun8CDZ2yBdKV3rj-1" target="_9DPHun8CDZ2yBdKV3rj-2">
          <mxGeometry relative="1" as="geometry" />
        </mxCell>
        <mxCell id="_9DPHun8CDZ2yBdKV3rj-1" value="serve is block" style="rounded=0;whiteSpace=wrap;html=1;" vertex="1" parent="1">
          <mxGeometry x="320" y="110" width="120" height="60" as="geometry" />
        </mxCell>
        <mxCell id="_9DPHun8CDZ2yBdKV3rj-5" value="" style="edgeStyle=orthogonalEdgeStyle;rounded=0;orthogonalLoop=1;jettySize=auto;html=1;" edge="1" parent="1" source="_9DPHun8CDZ2yBdKV3rj-2" target="_9DPHun8CDZ2yBdKV3rj-4">
          <mxGeometry relative="1" as="geometry" />
        </mxCell>
        <mxCell id="_9DPHun8CDZ2yBdKV3rj-2" value="server is broken" style="rounded=0;whiteSpace=wrap;html=1;" vertex="1" parent="1">
          <mxGeometry x="320" y="250" width="120" height="60" as="geometry" />
        </mxCell>
        <mxCell id="_9DPHun8CDZ2yBdKV3rj-7" value="" style="edgeStyle=orthogonalEdgeStyle;rounded=0;orthogonalLoop=1;jettySize=auto;html=1;" edge="1" parent="1" source="_9DPHun8CDZ2yBdKV3rj-4" target="_9DPHun8CDZ2yBdKV3rj-6">
          <mxGeometry relative="1" as="geometry" />
        </mxCell>
        <mxCell id="_9DPHun8CDZ2yBdKV3rj-4" value="server is deblock?" style="rhombus;whiteSpace=wrap;html=1;rounded=0;" vertex="1" parent="1">
          <mxGeometry x="340" y="380" width="80" height="80" as="geometry" />
        </mxCell>
        <mxCell id="_9DPHun8CDZ2yBdKV3rj-6" value="" style="rounded=0;whiteSpace=wrap;html=1;" vertex="1" parent="1">
          <mxGeometry x="480" y="390" width="120" height="60" as="geometry" />
        </mxCell>
        <mxCell id="_9DPHun8CDZ2yBdKV3rj-9" value="Yes" style="text;html=1;strokeColor=none;fillColor=none;align=center;verticalAlign=middle;whiteSpace=wrap;rounded=0;" vertex="1" parent="1">
          <mxGeometry x="430" y="390" width="40" height="20" as="geometry" />
        </mxCell>
      </root>
    </mxGraphModel>
  </diagram>
</mxfile>
